<svg t="1619008171957" class="icon" viewBox="0 0 1024 1024" version="1.1" xmlns="http://www.w3.org/2000/svg" p-id="9658" width="700" height="700"><path d="M908.387097 587.709935c0-122.813935-85.091097-222.406194-190.067613-222.406193-18.828387 0-37.524645 3.237161-55.494194 9.678452C625.201548 280.807226 543.611871 215.535484 448.941419 215.535484 318.662194 215.535484 213.058065 339.142194 213.058065 491.586065c0 9.116903 0.396387 18.167742 1.123096 27.053419C157.795097 533.305806 115.612903 592.16929 115.612903 662.594065 115.612903 744.051613 172.065032 810.116129 241.697032 810.116129l1.915871-0.066064V810.116129h477.547355v-0.099097C824.815484 808.23329 908.387097 709.400774 908.387097 587.709935z" fill="#66CCFF" p-id="9659" data-spm-anchor-id="a313x.7781069.0.i0" class="selected"></path><path d="M824.782452 583.713032c43.503484-109.171613-1.486452-218.40929-106.462968-218.40929-18.828387 0-37.524645 3.237161-55.494194 9.678452C625.201548 280.807226 543.611871 215.535484 448.941419 215.535484 318.662194 215.535484 213.058065 339.142194 213.058065 491.586065c0 9.116903 0.396387 18.167742 1.123096 27.053419C157.795097 533.305806 115.612903 592.16929 115.612903 662.594065 115.612903 744.051613 172.065032 810.116129 241.697032 810.116129l1.915871-0.066064c132.558452-4.525419 241.36671-21.008516 326.457807-49.482323 127.636645-42.71071 211.208258-67.716129 254.711742-176.85471z" fill="#FFFFFF" opacity=".2" p-id="9660"></path></svg>